HIERARCHY
ROOT SpineBase
{
  OFFSET 0.000000 0.000000 0.000000
  CHANNELS 6 Xposition Yposition Zposition Zrotation Xrotation Yrotation
  JOINT SpineMid
  {
    OFFSET 0.000000 25.385572 0.000000
    CHANNELS 3 Zrotation Xrotation Yrotation
    JOINT SpineShoulder
    {
      OFFSET -0.090180 19.060140 -0.447498
      CHANNELS 3 Zrotation Xrotation Yrotation
      JOINT Neck
      {
        OFFSET -0.064454 6.392856 -0.391025
        CHANNELS 3 Zrotation Xrotation Yrotation
        JOINT Head
        {
          OFFSET -1.240387 11.470519 1.325673
          CHANNELS 3 Zrotation Xrotation Yrotation
          End Site
          {
            OFFSET 0 0 0
          }
        }
      }
      JOINT ShoulderLeft
      {
        OFFSET -12.691079 -2.624485 3.375487
        CHANNELS 3 Zrotation Xrotation Yrotation
        JOINT ElbowLeft
        {
          OFFSET -3.957948 -22.277790 0.606022
          CHANNELS 3 Zrotation Xrotation Yrotation
          JOINT WristLeft
          {
            OFFSET -6.378797 -4.991987 -23.838155
            CHANNELS 3 Zrotation Xrotation Yrotation
            JOINT HandLeft
            {
              OFFSET -1.192720 -0.582795 -5.506582
              CHANNELS 3 Zrotation Xrotation Yrotation
              JOINT HandTipLeft
              {
                OFFSET -2.697664 0.699419 -8.695591
                CHANNELS 3 Zrotation Xrotation Yrotation
                End Site
                {
                  OFFSET 0 0 0
                }
              }
              JOINT ThumbLeft
              {
                OFFSET -3.933705 1.149567 -4.761416
                CHANNELS 3 Zrotation Xrotation Yrotation
                End Site
                {
                  OFFSET 0 0 0
                }
              }
            }
          }
        }
      }
      JOINT ShoulderRight
      {
        OFFSET 10.684440 -2.128475 -7.337654
        CHANNELS 3 Zrotation Xrotation Yrotation
        JOINT ElbowRight
        {
          OFFSET 5.929087 -20.273964 -2.169916
          CHANNELS 3 Zrotation Xrotation Yrotation
          JOINT WristRight
          {
            OFFSET -12.163337 -3.944394 -17.988571
            CHANNELS 3 Zrotation Xrotation Yrotation
            JOINT HandRight
            {
              OFFSET -4.795527 -0.075295 -5.273819
              CHANNELS 3 Zrotation Xrotation Yrotation
              JOINT HandTipRight
              {
                OFFSET -2.643161 -1.393974 -2.905560
                CHANNELS 3 Zrotation Xrotation Yrotation
                End Site
                {
                  OFFSET 0 0 0
                }
              }
              JOINT ThumbRight
              {
                OFFSET -2.406356 0.385894 -0.448309
                CHANNELS 3 Zrotation Xrotation Yrotation
                End Site
                {
                  OFFSET 0 0 0
                }
              }
            }
          }
        }
      }
    }
  }
  JOINT HipLeft
  {
    OFFSET -6.373011 1.430251 -1.196536
    CHANNELS 3 Zrotation Xrotation Yrotation
    JOINT KneeLeft
    {
      OFFSET -15.333314 6.273549 -29.763631
      CHANNELS 3 Zrotation Xrotation Yrotation
      JOINT AnkleLeft
      {
        OFFSET -2.269913 -36.106875 3.309850
        CHANNELS 3 Zrotation Xrotation Yrotation
        JOINT FootLeft
        {
          OFFSET -3.552357 -1.317938 -10.425439
          CHANNELS 3 Zrotation Xrotation Yrotation
          End Site
          {
            OFFSET 0 0 0
          }
        }
      }
    }
  }
  JOINT HipRight
  {
    OFFSET 5.821658 1.361633 -4.301741
    CHANNELS 3 Zrotation Xrotation Yrotation
    JOINT KneeRight
    {
      OFFSET -12.026058 6.156024 -31.401753
      CHANNELS 3 Zrotation Xrotation Yrotation
      JOINT AnkleRight
      {
        OFFSET 4.663866 -33.591578 -0.572939
        CHANNELS 3 Zrotation Xrotation Yrotation
        JOINT FootRight
        {
          OFFSET -3.725727 -1.307653 -10.404476
          CHANNELS 3 Zrotation Xrotation Yrotation
          End Site
          {
            OFFSET 0 0 0
          }
        }
      }
    }
  }
}
MOTION
Frames: 5
Frame Time: 0.033333
40.640489 37.939642 369.741662 -0.000000 0.000000 14.285983 -0.000000 0.000000 -14.285983 -0.000000 0.000000 0.000000 -0.000000 0.000000 0.000000 0.000000 0.000000 0.000000 -0.000000 0.000000 0.000000 -0.000000 0.000000 0.000000 -0.000000 0.000000 0.000000 -0.000000 0.000000 0.000000 0.000000 0.000000 0.000000 0.000000 0.000000 0.000000 -0.000000 0.000000 0.000000 -0.000000 0.000000 0.000000 -0.000000 0.000000 0.000000 -0.000000 0.000000 0.000000 0.000000 0.000000 0.000000 0.000000 0.000000 0.000000 -0.000000 0.000000 -14.285983 -0.000000 0.000000 0.000000 -0.000000 0.000000 0.000000 0.000000 0.000000 0.000000 -0.000000 0.000000 -14.285983 -0.000000 0.000000 0.000000 -0.000000 0.000000 0.000000 0.000000 0.000000 0.000000
40.647784 37.937780 369.663874 -0.015823 0.307513 14.578675 -0.062091 -0.301595 -14.578796 -0.000000 0.000000 0.000000 0.369902 -0.793554 -0.126060 0.000000 0.000000 0.000000 -0.000000 0.000000 0.000000 -0.000000 0.000000 0.000000 0.921277 -2.131288 -5.350849 -0.772536 1.634681 7.387093 0.000000 0.000000 0.000000 0.000000 0.000000 0.000000 -0.000000 0.000000 0.000000 0.285287 -0.894559 1.525718 1.154610 -0.747468 -2.009871 -5.438869 3.430692 4.926766 0.000000 0.000000 0.000000 0.000000 0.000000 0.000000 -0.062091 -0.301595 -14.578796 -0.000000 0.000000 0.000000 -0.000000 0.000000 0.000000 0.000000 0.000000 0.000000 -0.062091 -0.301595 -14.578796 -0.000000 0.000000 0.000000 -0.000000 0.000000 0.000000 0.000000 0.000000 0.000000
40.652982 37.938067 369.611455 -0.040551 0.566013 14.907777 -0.106432 -0.557393 -14.908094 -0.000000 0.000000 0.000000 0.658912 -1.375522 -0.217161 0.000000 0.000000 0.000000 0.904106 -0.507789 0.118970 -0.903085 0.509602 -0.110947 1.480062 -3.774255 -9.355533 -1.397105 2.818696 13.081354 0.000000 0.000000 0.000000 0.000000 0.000000 0.000000 -0.000000 0.000000 0.000000 0.514231 -1.604992 2.831158 2.056400 -1.439119 -3.903292 -9.163083 5.652502 8.337760 0.000000 0.000000 0.000000 0.000000 0.000000 0.000000 -0.106432 -0.557393 -14.908094 -0.000000 0.000000 0.000000 -0.000000 0.000000 0.000000 0.000000 0.000000 0.000000 -0.106432 -0.557393 -14.908094 -0.000000 0.000000 0.000000 -0.000000 0.000000 0.000000 0.000000 0.000000 0.000000
40.656083 37.940505 369.584406 -0.074201 0.775272 15.273770 -0.132656 -0.767434 -15.274156 -0.076692 0.837583 0.004316 0.946520 -2.586619 -0.267109 0.000000 0.000000 0.000000 1.301343 -1.498164 0.172735 -1.535101 1.617914 0.135407 1.988074 -5.489402 -11.439908 -1.610039 3.277376 16.183489 0.000000 0.000000 0.000000 0.000000 0.000000 0.000000 0.076637 -0.837588 -0.003196 0.680355 -2.144857 3.930966 2.648080 -1.931662 -5.681651 -11.637651 7.044160 10.733049 0.000000 0.000000 0.000000 0.000000 0.000000 0.000000 -0.132656 -0.767434 -15.274156 -0.000000 0.000000 0.000000 -0.000000 0.000000 0.000000 0.000000 0.000000 0.000000 -0.132656 -0.767434 -15.274156 -0.000000 0.000000 0.000000 -0.000000 0.000000 0.000000 0.000000 0.000000 0.000000
40.657087 37.945093 369.582726 -0.116787 0.935102 15.677222 -0.027049 -0.029891 -15.675370 0.020795 0.095652 0.002228 1.118038 -2.911359 -0.291419 0.000000 0.000000 0.000000 1.570609 -1.740898 0.205322 -1.880190 2.085763 0.175941 2.021578 -5.574671 -10.846236 -1.298549 2.911491 16.327683 0.000000 0.000000 0.000000 0.000000 0.000000 0.000000 0.113907 -0.994673 -0.002072 0.778273 -2.523902 4.836644 2.906251 -2.116348 -7.334459 -13.058269 7.766121 12.307767 0.000000 0.000000 0.000000 0.000000 0.000000 0.000000 -0.140246 -0.931873 -15.677410 -0.000000 0.000000 0.000000 -0.000000 0.000000 0.000000 0.000000 0.000000 0.000000 -0.140246 -0.931873 -15.677410 -0.000000 0.000000 0.000000 -0.000000 0.000000 0.000000 0.000000 0.000000 0.000000
